# xmcd CD database file
# Copyright (C) 1997 Ti Kan
# 
# Track frame offsets:
#     150
#     21015
#     45003
#     59758
#     74970
#     103875
#     122413
#     138673
#     162983
#     184868
#     213075
# 
# Disc length: 3111 seconds
# 
# Revision: 1
# Processed by: cddbd v1.4b41PL1 Copyright (c) Steve Scherf et al.
# Submitted via: DiscPlay 4.0.4
# 
DISCID=a10c250b
DTITLE=Catfish Hodge - Catfish Blues
DYEAR=1900
DGENRE=
TTITLE0=Save A Little
TTITLE1=Cool Breeze
TTITLE2=High Road
TTITLE3=Unemployed
TTITLE4=From Memphis
TTITLE5=300 Pounds of Joy
TTITLE6=Cakewalk
TTITLE7=Fine Line
TTITLE8=Just For Today
TTITLE9=I Love You More Than You'll Ever Know
TTITLE10=I Smell Chicago
EXTD=
EXTT0=
EXTT1=
EXTT2=
EXTT3=
EXTT4=
EXTT5=
EXTT6=
EXTT7=
EXTT8=
EXTT9=
EXTT10=
PLAYORDER=
